<mxfile host="app.diagrams.net" modified="2022-03-14T13:41:48.396Z" agent="5.0 (Macintosh; Intel Mac OS X 10_15_7) AppleWebKit/537.36 (KHTML, like Gecko) Chrome/98.0.4758.109 Safari/537.36" etag="1osun3sYJNhEiv6YTOQ-" version="17.0.0" type="github">
  <diagram id="qFqO_Zj_qXNCahRx5LU8" name="Page-1">
    <mxGraphModel dx="1255" dy="811" grid="1" gridSize="10" guides="1" tooltips="1" connect="1" arrows="1" fold="1" page="1" pageScale="1" pageWidth="827" pageHeight="1169" math="0" shadow="0">
      <root>
        <mxCell id="0" />
        <mxCell id="1" parent="0" />
        <mxCell id="TAR0WF7nb0nxZd159NNX-28" value="BladeKV" style="shape=cylinder3;whiteSpace=wrap;html=1;boundedLbl=1;backgroundOutline=1;size=15;dashed=1;" vertex="1" parent="1">
          <mxGeometry x="540" y="539" width="60" height="80" as="geometry" />
        </mxCell>
        <mxCell id="TAR0WF7nb0nxZd159NNX-27" value="Tendis" style="shape=cylinder3;whiteSpace=wrap;html=1;boundedLbl=1;backgroundOutline=1;size=15;dashed=1;" vertex="1" parent="1">
          <mxGeometry x="320" y="539" width="60" height="80" as="geometry" />
        </mxCell>
        <mxCell id="TAR0WF7nb0nxZd159NNX-26" value="Redis" style="shape=cylinder3;whiteSpace=wrap;html=1;boundedLbl=1;backgroundOutline=1;size=15;dashed=1;" vertex="1" parent="1">
          <mxGeometry x="110" y="539" width="60" height="80" as="geometry" />
        </mxCell>
        <mxCell id="TAR0WF7nb0nxZd159NNX-1" value="" style="rounded=0;whiteSpace=wrap;html=1;dashed=1;" vertex="1" parent="1">
          <mxGeometry x="40" y="300" width="560" height="110" as="geometry" />
        </mxCell>
        <mxCell id="TAR0WF7nb0nxZd159NNX-2" value="ola服务" style="rounded=0;whiteSpace=wrap;html=1;" vertex="1" parent="1">
          <mxGeometry x="20" y="130" width="120" height="60" as="geometry" />
        </mxCell>
        <mxCell id="TAR0WF7nb0nxZd159NNX-3" value="画像服务" style="rounded=0;whiteSpace=wrap;html=1;" vertex="1" parent="1">
          <mxGeometry x="166" y="130" width="120" height="60" as="geometry" />
        </mxCell>
        <mxCell id="TAR0WF7nb0nxZd159NNX-4" value="模型服务" style="rounded=0;whiteSpace=wrap;html=1;" vertex="1" parent="1">
          <mxGeometry x="310" y="130" width="120" height="60" as="geometry" />
        </mxCell>
        <mxCell id="TAR0WF7nb0nxZd159NNX-5" value="判存服务" style="rounded=0;whiteSpace=wrap;html=1;" vertex="1" parent="1">
          <mxGeometry x="460" y="130" width="120" height="60" as="geometry" />
        </mxCell>
        <mxCell id="TAR0WF7nb0nxZd159NNX-6" value="" style="rounded=0;whiteSpace=wrap;html=1;fillColor=#d5e8d4;strokeColor=#82b366;" vertex="1" parent="1">
          <mxGeometry x="50" y="168" width="60" height="20" as="geometry" />
        </mxCell>
        <mxCell id="TAR0WF7nb0nxZd159NNX-7" value="" style="rounded=0;whiteSpace=wrap;html=1;fillColor=#d5e8d4;strokeColor=#82b366;" vertex="1" parent="1">
          <mxGeometry x="196" y="168" width="60" height="20" as="geometry" />
        </mxCell>
        <mxCell id="TAR0WF7nb0nxZd159NNX-8" value="" style="rounded=0;whiteSpace=wrap;html=1;fillColor=#d5e8d4;strokeColor=#82b366;" vertex="1" parent="1">
          <mxGeometry x="340" y="168" width="60" height="20" as="geometry" />
        </mxCell>
        <mxCell id="TAR0WF7nb0nxZd159NNX-9" value="" style="rounded=0;whiteSpace=wrap;html=1;fillColor=#d5e8d4;strokeColor=#82b366;" vertex="1" parent="1">
          <mxGeometry x="490" y="168" width="60" height="20" as="geometry" />
        </mxCell>
        <mxCell id="TAR0WF7nb0nxZd159NNX-10" value="" style="endArrow=classic;html=1;rounded=0;entryX=0.5;entryY=1;entryDx=0;entryDy=0;exitX=0.5;exitY=0;exitDx=0;exitDy=0;" edge="1" parent="1" source="TAR0WF7nb0nxZd159NNX-1" target="TAR0WF7nb0nxZd159NNX-6">
          <mxGeometry width="50" height="50" relative="1" as="geometry">
            <mxPoint x="30" y="320" as="sourcePoint" />
            <mxPoint x="80" y="270" as="targetPoint" />
          </mxGeometry>
        </mxCell>
        <mxCell id="TAR0WF7nb0nxZd159NNX-14" value="集成" style="edgeLabel;html=1;align=center;verticalAlign=middle;resizable=0;points=[];" vertex="1" connectable="0" parent="TAR0WF7nb0nxZd159NNX-10">
          <mxGeometry x="0.0265" y="3" relative="1" as="geometry">
            <mxPoint y="-1" as="offset" />
          </mxGeometry>
        </mxCell>
        <mxCell id="TAR0WF7nb0nxZd159NNX-11" value="" style="endArrow=classic;html=1;rounded=0;entryX=0.5;entryY=1;entryDx=0;entryDy=0;exitX=0.5;exitY=0;exitDx=0;exitDy=0;" edge="1" parent="1" source="TAR0WF7nb0nxZd159NNX-1" target="TAR0WF7nb0nxZd159NNX-7">
          <mxGeometry width="50" height="50" relative="1" as="geometry">
            <mxPoint x="310" y="300" as="sourcePoint" />
            <mxPoint x="90" y="198" as="targetPoint" />
          </mxGeometry>
        </mxCell>
        <mxCell id="TAR0WF7nb0nxZd159NNX-15" value="集成" style="edgeLabel;html=1;align=center;verticalAlign=middle;resizable=0;points=[];" vertex="1" connectable="0" parent="TAR0WF7nb0nxZd159NNX-11">
          <mxGeometry x="0.1217" relative="1" as="geometry">
            <mxPoint x="-1" as="offset" />
          </mxGeometry>
        </mxCell>
        <mxCell id="TAR0WF7nb0nxZd159NNX-12" value="" style="endArrow=classic;html=1;rounded=0;entryX=0.5;entryY=1;entryDx=0;entryDy=0;exitX=0.5;exitY=0;exitDx=0;exitDy=0;" edge="1" parent="1" source="TAR0WF7nb0nxZd159NNX-1" target="TAR0WF7nb0nxZd159NNX-8">
          <mxGeometry width="50" height="50" relative="1" as="geometry">
            <mxPoint x="320" y="310" as="sourcePoint" />
            <mxPoint x="100" y="208" as="targetPoint" />
          </mxGeometry>
        </mxCell>
        <mxCell id="TAR0WF7nb0nxZd159NNX-16" value="集成" style="edgeLabel;html=1;align=center;verticalAlign=middle;resizable=0;points=[];" vertex="1" connectable="0" parent="TAR0WF7nb0nxZd159NNX-12">
          <mxGeometry x="0.1245" y="-1" relative="1" as="geometry">
            <mxPoint y="-1" as="offset" />
          </mxGeometry>
        </mxCell>
        <mxCell id="TAR0WF7nb0nxZd159NNX-13" value="" style="endArrow=classic;html=1;rounded=0;entryX=0.5;entryY=1;entryDx=0;entryDy=0;exitX=0.5;exitY=0;exitDx=0;exitDy=0;" edge="1" parent="1" source="TAR0WF7nb0nxZd159NNX-1" target="TAR0WF7nb0nxZd159NNX-9">
          <mxGeometry width="50" height="50" relative="1" as="geometry">
            <mxPoint x="330" y="320" as="sourcePoint" />
            <mxPoint x="110" y="218" as="targetPoint" />
          </mxGeometry>
        </mxCell>
        <mxCell id="TAR0WF7nb0nxZd159NNX-17" value="集成" style="edgeLabel;html=1;align=center;verticalAlign=middle;resizable=0;points=[];" vertex="1" connectable="0" parent="TAR0WF7nb0nxZd159NNX-13">
          <mxGeometry x="-0.0473" y="-2" relative="1" as="geometry">
            <mxPoint as="offset" />
          </mxGeometry>
        </mxCell>
        <mxCell id="TAR0WF7nb0nxZd159NNX-22" value="Redis" style="shape=cylinder3;whiteSpace=wrap;html=1;boundedLbl=1;backgroundOutline=1;size=15;" vertex="1" parent="1">
          <mxGeometry x="80" y="479" width="60" height="80" as="geometry" />
        </mxCell>
        <mxCell id="TAR0WF7nb0nxZd159NNX-23" value="Tendis" style="shape=cylinder3;whiteSpace=wrap;html=1;boundedLbl=1;backgroundOutline=1;size=15;" vertex="1" parent="1">
          <mxGeometry x="286" y="479" width="60" height="80" as="geometry" />
        </mxCell>
        <mxCell id="TAR0WF7nb0nxZd159NNX-24" value="BladeKV" style="shape=cylinder3;whiteSpace=wrap;html=1;boundedLbl=1;backgroundOutline=1;size=15;" vertex="1" parent="1">
          <mxGeometry x="510" y="479" width="60" height="80" as="geometry" />
        </mxCell>
        <mxCell id="TAR0WF7nb0nxZd159NNX-25" value="" style="shape=flexArrow;endArrow=classic;html=1;rounded=0;" edge="1" parent="1">
          <mxGeometry width="50" height="50" relative="1" as="geometry">
            <mxPoint x="316" y="420" as="sourcePoint" />
            <mxPoint x="316" y="470" as="targetPoint" />
          </mxGeometry>
        </mxCell>
        <mxCell id="TAR0WF7nb0nxZd159NNX-29" value="&lt;font style=&quot;font-size: 18px&quot;&gt;&lt;b&gt;GZ&lt;/b&gt;&lt;/font&gt;" style="text;html=1;strokeColor=none;fillColor=none;align=center;verticalAlign=middle;whiteSpace=wrap;rounded=0;dashed=1;" vertex="1" parent="1">
          <mxGeometry x="10" y="504" width="60" height="30" as="geometry" />
        </mxCell>
        <mxCell id="TAR0WF7nb0nxZd159NNX-30" value="&lt;b&gt;&lt;font style=&quot;font-size: 18px&quot;&gt;SH&lt;/font&gt;&lt;/b&gt;" style="text;html=1;strokeColor=none;fillColor=none;align=center;verticalAlign=middle;whiteSpace=wrap;rounded=0;dashed=1;" vertex="1" parent="1">
          <mxGeometry x="40" y="569.5" width="60" height="30" as="geometry" />
        </mxCell>
        <mxCell id="TAR0WF7nb0nxZd159NNX-31" value="。&lt;br&gt;。&lt;br&gt;。" style="text;html=1;strokeColor=none;fillColor=none;align=center;verticalAlign=middle;whiteSpace=wrap;rounded=0;dashed=1;" vertex="1" parent="1">
          <mxGeometry x="110" y="639" width="60" height="30" as="geometry" />
        </mxCell>
        <mxCell id="TAR0WF7nb0nxZd159NNX-32" value="。&lt;br&gt;。&lt;br&gt;。" style="text;html=1;strokeColor=none;fillColor=none;align=center;verticalAlign=middle;whiteSpace=wrap;rounded=0;dashed=1;" vertex="1" parent="1">
          <mxGeometry x="320" y="639" width="60" height="30" as="geometry" />
        </mxCell>
        <mxCell id="TAR0WF7nb0nxZd159NNX-33" value="。&lt;br&gt;。&lt;br&gt;。" style="text;html=1;strokeColor=none;fillColor=none;align=center;verticalAlign=middle;whiteSpace=wrap;rounded=0;dashed=1;" vertex="1" parent="1">
          <mxGeometry x="540" y="639" width="60" height="30" as="geometry" />
        </mxCell>
        <mxCell id="TAR0WF7nb0nxZd159NNX-34" value="&lt;b&gt;&lt;font style=&quot;font-size: 14px&quot;&gt;特征服务jar&lt;/font&gt;&lt;/b&gt;" style="text;html=1;strokeColor=none;fillColor=none;align=center;verticalAlign=middle;whiteSpace=wrap;rounded=0;dashed=1;fontSize=18;" vertex="1" parent="1">
          <mxGeometry x="141" y="300" width="350" height="40" as="geometry" />
        </mxCell>
        <mxCell id="TAR0WF7nb0nxZd159NNX-35" value="&lt;b&gt;&lt;font style=&quot;font-size: 18px&quot;&gt;TJ&lt;/font&gt;&lt;/b&gt;" style="text;html=1;strokeColor=none;fillColor=none;align=center;verticalAlign=middle;whiteSpace=wrap;rounded=0;dashed=1;" vertex="1" parent="1">
          <mxGeometry x="40" y="639" width="60" height="30" as="geometry" />
        </mxCell>
        <mxCell id="TAR0WF7nb0nxZd159NNX-36" value="元数据" style="rounded=0;whiteSpace=wrap;html=1;fontSize=14;" vertex="1" parent="1">
          <mxGeometry x="750" y="130" width="120" height="280" as="geometry" />
        </mxCell>
        <mxCell id="TAR0WF7nb0nxZd159NNX-37" value="" style="shape=flexArrow;endArrow=classic;html=1;rounded=0;fontSize=14;" edge="1" parent="1">
          <mxGeometry width="50" height="50" relative="1" as="geometry">
            <mxPoint x="730" y="320" as="sourcePoint" />
            <mxPoint x="630" y="320" as="targetPoint" />
          </mxGeometry>
        </mxCell>
        <mxCell id="TAR0WF7nb0nxZd159NNX-38" value="特征配置" style="text;html=1;strokeColor=none;fillColor=none;align=center;verticalAlign=middle;whiteSpace=wrap;rounded=0;dashed=1;fontSize=14;" vertex="1" parent="1">
          <mxGeometry x="650" y="280" width="60" height="30" as="geometry" />
        </mxCell>
        <mxCell id="TAR0WF7nb0nxZd159NNX-39" value="" style="shape=flexArrow;endArrow=classic;html=1;rounded=0;fontSize=14;" edge="1" parent="1">
          <mxGeometry width="50" height="50" relative="1" as="geometry">
            <mxPoint x="630" y="380" as="sourcePoint" />
            <mxPoint x="730" y="380" as="targetPoint" />
          </mxGeometry>
        </mxCell>
        <mxCell id="TAR0WF7nb0nxZd159NNX-40" value="metrics" style="text;html=1;strokeColor=none;fillColor=none;align=center;verticalAlign=middle;whiteSpace=wrap;rounded=0;dashed=1;fontSize=14;" vertex="1" parent="1">
          <mxGeometry x="650" y="384" width="60" height="30" as="geometry" />
        </mxCell>
        <mxCell id="TAR0WF7nb0nxZd159NNX-41" value="特征接入" style="rounded=0;whiteSpace=wrap;html=1;fontSize=14;fillColor=#f9f7ed;strokeColor=#36393d;" vertex="1" parent="1">
          <mxGeometry x="750" y="479" width="120" height="191" as="geometry" />
        </mxCell>
        <mxCell id="TAR0WF7nb0nxZd159NNX-42" value="" style="shape=flexArrow;endArrow=classic;html=1;rounded=0;fontSize=14;" edge="1" parent="1">
          <mxGeometry width="50" height="50" relative="1" as="geometry">
            <mxPoint x="730" y="560" as="sourcePoint" />
            <mxPoint x="620" y="560" as="targetPoint" />
          </mxGeometry>
        </mxCell>
        <mxCell id="TAR0WF7nb0nxZd159NNX-43" style="edgeStyle=orthogonalEdgeStyle;rounded=0;orthogonalLoop=1;jettySize=auto;html=1;exitX=0.5;exitY=1;exitDx=0;exitDy=0;fontSize=14;" edge="1" parent="1" source="TAR0WF7nb0nxZd159NNX-40" target="TAR0WF7nb0nxZd159NNX-40">
          <mxGeometry relative="1" as="geometry" />
        </mxCell>
        <mxCell id="TAR0WF7nb0nxZd159NNX-45" value="导入" style="text;html=1;strokeColor=none;fillColor=none;align=center;verticalAlign=middle;whiteSpace=wrap;rounded=0;dashed=1;fontSize=14;" vertex="1" parent="1">
          <mxGeometry x="650" y="520" width="60" height="30" as="geometry" />
        </mxCell>
        <mxCell id="TAR0WF7nb0nxZd159NNX-46" value="&lt;font color=&quot;#ff3333&quot;&gt;&lt;b&gt;1. 压缩&lt;br&gt;2. 限流&lt;/b&gt;&lt;/font&gt;" style="text;html=1;strokeColor=none;fillColor=none;align=center;verticalAlign=middle;whiteSpace=wrap;rounded=0;dashed=1;fontSize=14;" vertex="1" parent="1">
          <mxGeometry x="630" y="569" width="90" height="50" as="geometry" />
        </mxCell>
        <mxCell id="TAR0WF7nb0nxZd159NNX-47" value="" style="shape=flexArrow;endArrow=classic;html=1;rounded=0;fontSize=14;" edge="1" parent="1">
          <mxGeometry width="50" height="50" relative="1" as="geometry">
            <mxPoint x="790" y="420" as="sourcePoint" />
            <mxPoint x="790" y="470" as="targetPoint" />
          </mxGeometry>
        </mxCell>
        <mxCell id="TAR0WF7nb0nxZd159NNX-48" value="自动&lt;br&gt;上下线" style="text;html=1;strokeColor=none;fillColor=none;align=center;verticalAlign=middle;whiteSpace=wrap;rounded=0;dashed=1;fontSize=14;" vertex="1" parent="1">
          <mxGeometry x="800" y="430" width="60" height="30" as="geometry" />
        </mxCell>
        <mxCell id="TAR0WF7nb0nxZd159NNX-50" value="" style="group" vertex="1" connectable="0" parent="1">
          <mxGeometry x="50" y="350" width="540" height="40" as="geometry" />
        </mxCell>
        <mxCell id="TAR0WF7nb0nxZd159NNX-18" value="跨Zone连接池" style="rounded=0;whiteSpace=wrap;html=1;fillColor=#f5f5f5;fontColor=#333333;strokeColor=#666666;flipH=1;flipV=1;" vertex="1" parent="TAR0WF7nb0nxZd159NNX-50">
          <mxGeometry width="100" height="40" as="geometry" />
        </mxCell>
        <mxCell id="TAR0WF7nb0nxZd159NNX-19" value="特征压缩" style="rounded=0;whiteSpace=wrap;html=1;fillColor=#f5f5f5;fontColor=#333333;strokeColor=#666666;flipH=1;flipV=1;" vertex="1" parent="TAR0WF7nb0nxZd159NNX-50">
          <mxGeometry x="110" width="100" height="40" as="geometry" />
        </mxCell>
        <mxCell id="TAR0WF7nb0nxZd159NNX-20" value="特征监控" style="rounded=0;whiteSpace=wrap;html=1;fillColor=#f5f5f5;fontColor=#333333;strokeColor=#666666;flipH=1;flipV=1;" vertex="1" parent="TAR0WF7nb0nxZd159NNX-50">
          <mxGeometry x="330" width="100" height="40" as="geometry" />
        </mxCell>
        <mxCell id="TAR0WF7nb0nxZd159NNX-21" value="混合存储引擎" style="rounded=0;whiteSpace=wrap;html=1;fillColor=#f5f5f5;fontColor=#333333;strokeColor=#666666;flipH=1;flipV=1;" vertex="1" parent="TAR0WF7nb0nxZd159NNX-50">
          <mxGeometry x="220" width="100" height="40" as="geometry" />
        </mxCell>
        <mxCell id="TAR0WF7nb0nxZd159NNX-49" value="熔断降级" style="rounded=0;whiteSpace=wrap;html=1;fillColor=#f5f5f5;fontColor=#333333;strokeColor=#666666;flipH=1;flipV=1;" vertex="1" parent="TAR0WF7nb0nxZd159NNX-50">
          <mxGeometry x="440" width="100" height="40" as="geometry" />
        </mxCell>
      </root>
    </mxGraphModel>
  </diagram>
</mxfile>
